<mxfile host="app.diagrams.net" modified="2023-12-17T22:25:43.825Z" agent="Mozilla/5.0 (Windows NT 10.0; Win64; x64) AppleWebKit/537.36 (KHTML, like Gecko) Chrome/119.0.0.0 Safari/537.36 OPR/105.0.0.0" etag="ajiuO6dXoQcNIKXOvLyl" version="22.1.11" type="device">
  <diagram name="Страница — 1" id="aaX8kAtMaxUvQ-7kl7H3">
    <mxGraphModel dx="824" dy="605" grid="1" gridSize="10" guides="1" tooltips="1" connect="1" arrows="1" fold="1" page="1" pageScale="1" pageWidth="827" pageHeight="1169" math="0" shadow="0">
      <root>
        <mxCell id="0" />
        <mxCell id="1" parent="0" />
        <mxCell id="afRNOYAYpzk3mg_FUYpq-8" style="edgeStyle=orthogonalEdgeStyle;rounded=0;orthogonalLoop=1;jettySize=auto;html=1;exitX=0.5;exitY=1;exitDx=0;exitDy=0;entryX=0.5;entryY=0;entryDx=0;entryDy=0;" edge="1" parent="1" source="afRNOYAYpzk3mg_FUYpq-1" target="afRNOYAYpzk3mg_FUYpq-2">
          <mxGeometry relative="1" as="geometry" />
        </mxCell>
        <mxCell id="afRNOYAYpzk3mg_FUYpq-1" value="&lt;font style=&quot;font-size: 14px;&quot;&gt;начало&lt;br&gt;f&lt;br&gt;&lt;/font&gt;" style="ellipse;whiteSpace=wrap;html=1;" vertex="1" parent="1">
          <mxGeometry x="80" y="50" width="120" height="40" as="geometry" />
        </mxCell>
        <mxCell id="afRNOYAYpzk3mg_FUYpq-9" style="edgeStyle=orthogonalEdgeStyle;rounded=0;orthogonalLoop=1;jettySize=auto;html=1;exitX=0.5;exitY=1;exitDx=0;exitDy=0;entryX=0.5;entryY=0;entryDx=0;entryDy=0;" edge="1" parent="1" source="afRNOYAYpzk3mg_FUYpq-2" target="afRNOYAYpzk3mg_FUYpq-3">
          <mxGeometry relative="1" as="geometry" />
        </mxCell>
        <mxCell id="afRNOYAYpzk3mg_FUYpq-2" value="&lt;font style=&quot;font-size: 14px;&quot;&gt;x&lt;/font&gt;" style="shape=parallelogram;perimeter=parallelogramPerimeter;whiteSpace=wrap;html=1;fixedSize=1;" vertex="1" parent="1">
          <mxGeometry x="80" y="110" width="120" height="20" as="geometry" />
        </mxCell>
        <mxCell id="afRNOYAYpzk3mg_FUYpq-10" style="edgeStyle=orthogonalEdgeStyle;rounded=0;orthogonalLoop=1;jettySize=auto;html=1;exitX=0.5;exitY=1;exitDx=0;exitDy=0;entryX=0.5;entryY=0;entryDx=0;entryDy=0;" edge="1" parent="1" source="afRNOYAYpzk3mg_FUYpq-3" target="afRNOYAYpzk3mg_FUYpq-4">
          <mxGeometry relative="1" as="geometry" />
        </mxCell>
        <mxCell id="afRNOYAYpzk3mg_FUYpq-3" value="&lt;font style=&quot;font-size: 14px;&quot;&gt;f:= &lt;span style=&quot;font-family: Consolas; color: darkgreen;&quot; lang=&quot;EN-US&quot;&gt;2&lt;/span&gt;&lt;span style=&quot;font-family: Consolas;&quot; lang=&quot;EN-US&quot;&gt;*(x^&lt;/span&gt;&lt;span style=&quot;font-family: Consolas; color: darkgreen;&quot; lang=&quot;EN-US&quot;&gt;3&lt;/span&gt;&lt;span style=&quot;font-family: Consolas;&quot; lang=&quot;EN-US&quot;&gt;)+&lt;/span&gt;&lt;span style=&quot;font-family: Consolas; color: darkgreen;&quot; lang=&quot;EN-US&quot;&gt;0&lt;/span&gt;&lt;span style=&quot;font-family: Consolas;&quot; lang=&quot;EN-US&quot;&gt;*(x^&lt;/span&gt;&lt;span style=&quot;font-family: Consolas; color: darkgreen;&quot; lang=&quot;EN-US&quot;&gt;2&lt;/span&gt;&lt;span style=&quot;font-family: Consolas;&quot; lang=&quot;EN-US&quot;&gt;)+(-&lt;/span&gt;&lt;span style=&quot;font-family: Consolas; color: darkgreen;&quot; lang=&quot;EN-US&quot;&gt;2&lt;/span&gt;&lt;span style=&quot;font-family: Consolas;&quot; lang=&quot;EN-US&quot;&gt;)*x+&lt;/span&gt;&lt;span style=&quot;font-family: Consolas; color: darkgreen;&quot; lang=&quot;EN-US&quot;&gt;7&lt;/span&gt;&lt;/font&gt;" style="rounded=0;whiteSpace=wrap;html=1;" vertex="1" parent="1">
          <mxGeometry x="80" y="150" width="120" height="40" as="geometry" />
        </mxCell>
        <mxCell id="afRNOYAYpzk3mg_FUYpq-4" value="&lt;font style=&quot;font-size: 14px;&quot;&gt;конец&lt;br&gt;f&lt;br&gt;&lt;/font&gt;" style="ellipse;whiteSpace=wrap;html=1;" vertex="1" parent="1">
          <mxGeometry x="80" y="210" width="120" height="40" as="geometry" />
        </mxCell>
        <mxCell id="afRNOYAYpzk3mg_FUYpq-5" value="" style="endArrow=none;dashed=1;html=1;dashPattern=1 3;strokeWidth=2;rounded=0;" edge="1" parent="1">
          <mxGeometry width="50" height="50" relative="1" as="geometry">
            <mxPoint x="190" y="120.22" as="sourcePoint" />
            <mxPoint x="230" y="120" as="targetPoint" />
          </mxGeometry>
        </mxCell>
        <mxCell id="afRNOYAYpzk3mg_FUYpq-6" value="" style="strokeWidth=2;html=1;shape=mxgraph.flowchart.annotation_1;align=left;pointerEvents=1;" vertex="1" parent="1">
          <mxGeometry x="230" y="105" width="10" height="30" as="geometry" />
        </mxCell>
        <mxCell id="afRNOYAYpzk3mg_FUYpq-7" value="элемент по значению" style="text;html=1;strokeColor=none;fillColor=none;align=center;verticalAlign=middle;whiteSpace=wrap;rounded=0;" vertex="1" parent="1">
          <mxGeometry x="220" y="105" width="110" height="30" as="geometry" />
        </mxCell>
      </root>
    </mxGraphModel>
  </diagram>
</mxfile>
